<svg width="288" height="216" viewBox="0 0 288 216" fill="none" xmlns="http://www.w3.org/2000/svg">
<path d="M71.5531 187.533H182.187L182.187 9.99976H71.5531L71.5531 187.533Z" fill="#0065FF"/>
<path d="M185.742 10.4998L185.742 187.033H76.1087L76.1087 10.4998H185.742Z" fill="white" stroke="#253858"/>
<path d="M174.792 46.634H86.5079C86.3763 46.634 86.2686 46.5263 86.2686 46.3946V23.2218C86.2686 23.0901 86.3763 22.9824 86.5079 22.9824H174.792C174.924 22.9824 175.031 23.0901 175.031 23.2218V46.397C175.031 46.5287 174.924 46.6364 174.792 46.6364V46.634ZM86.7473 46.1552H174.553V23.4612H86.7473V46.1576V46.1552Z" fill="#DEEBFF" stroke="#253858" stroke-width="0.5"/>
<path d="M144.272 103.245H87.3838V105.452H144.272V103.245Z" fill="#DEEBFF"/>
<path d="M166.149 108.755H96.2119V110.962H166.149V108.755Z" fill="#DEEBFF"/>
<path d="M154.674 114.27H87.3838V116.477H154.674V114.27Z" fill="#DEEBFF"/>
<path d="M143.315 126.7H86.4268V128.907H143.315V126.7Z" fill="#DEEBFF"/>
<path d="M165.192 132.21H95.2549V134.417H165.192V132.21Z" fill="#DEEBFF"/>
<path d="M153.717 137.728H86.4268V139.935H153.717V137.728Z" fill="#DEEBFF"/>
<path d="M172.813 78.9648H102.439V81.172H172.813V78.9648Z" fill="#DEEBFF"/>
<path d="M152.771 84.4746H85.4814V86.6818H152.771V84.4746Z" fill="#DEEBFF"/>
<path d="M164.496 89.9922H85.4814V92.1994H164.496V89.9922Z" fill="#DEEBFF"/>
<path d="M164.494 56.1621H102.688V58.3693H164.494V56.1621Z" fill="#DEEBFF"/>
<path d="M152.771 61.6719H85.7305V63.879H152.771V61.6719Z" fill="#DEEBFF"/>
<path d="M172.813 67.1895H85.7305V69.3966H172.813V67.1895Z" fill="#DEEBFF"/>
<path d="M184.389 65.2857L184.469 65.4378L184.626 65.5087L188.217 67.1324L192.047 73.4002L192.137 73.5484L192.3 73.6086L210.335 80.2701L210.355 80.2776L210.376 80.2833L224.708 84.2154V194.008H120.81V84.1191L172.75 53.3656L180.809 58.4748L184.389 65.2857Z" fill="white" stroke="#253858"/>
<path d="M211.953 86.5664H174.812V111.654H211.953V86.5664Z" fill="#B3D4FF"/>
<path d="M188.753 111.91C188.612 111.91 188.496 111.794 188.496 111.652V86.5648C188.496 86.4234 188.612 86.3076 188.753 86.3076C188.895 86.3076 189.011 86.4234 189.011 86.5648V111.652C189.011 111.794 188.895 111.91 188.753 111.91Z" fill="white"/>
<path d="M173.238 86.5664H133.557V111.654H173.238V86.5664Z" fill="#B3D4FF"/>
<path d="M147.738 111.91C147.596 111.91 147.48 111.794 147.48 111.652V86.5648C147.48 86.4234 147.596 86.3076 147.738 86.3076C147.879 86.3076 147.995 86.4234 147.995 86.5648V111.652C147.995 111.794 147.879 111.91 147.738 111.91Z" fill="white"/>
<path d="M118.331 81.8004L171.238 49.8172L169.772 48.2174L170.706 46.6201L117.397 78.6034L118.331 81.8004Z" fill="#253858"/>
<path d="M224.811 123.769L120.065 122.969C119.924 122.969 119.808 122.851 119.811 122.71C119.811 122.568 119.926 122.455 120.068 122.455L224.814 123.255C224.955 123.255 225.071 123.373 225.069 123.515C225.069 123.656 224.953 123.769 224.811 123.769Z" fill="#E6D0BE"/>
<path d="M183.244 100.767L180.294 96.0682L183.985 97.1227L185.567 88.1592L186.796 93.6068L196.287 92.7297L192.069 97.4751L194.705 102.395L189.095 100.862L182.93 108.02L183.244 100.767Z" fill="#2D353A"/>
<path d="M155.251 143.943L150.915 138.751L160.273 124.941L152.589 111.201L164.151 102.41L155.022 82.4745L163.239 76.2448L157.306 69.5996L166.435 74.9984L158.447 83.512L168.487 101.995L156.925 112.1L164.988 125.531L154.452 138.544L155.251 143.943Z" fill="#253858"/>
<path d="M224.51 194.878C224.51 194.878 234.268 193.358 236.857 188.261C241.942 178.254 239.33 166.123 239.33 166.123C239.33 166.123 238.252 169.725 232.241 172.188C228.564 173.696 229.852 174.864 229.236 174.141C225.03 169.206 235.863 158.621 235.863 158.621C235.863 158.621 231.557 157.1 227.38 157.578C223.958 157.969 221.466 159.738 221.466 159.738C221.466 159.738 220.184 155.564 220.711 152.775C220.937 151.574 223.225 145.299 217.16 140.179C217.16 140.179 217.78 144.191 216.227 145.321C214.8 146.357 212.686 147.1 211.43 147.907C206.046 151.367 204.887 153.814 204.887 153.814C204.887 153.814 207.766 150.612 199.115 143.504C192.723 138.252 182.039 137.193 182.039 137.193C182.039 137.193 191.09 140.298 183.143 150.196C183.143 150.196 181.942 145.034 177.154 143.436C174.394 142.516 170.579 140.618 170.727 137.187C170.727 137.187 160.414 145.944 164.923 157.062C164.923 157.062 160.446 158.04 155.678 152.675C151.65 148.139 152.847 144.314 152.847 144.314C152.847 144.314 145.158 153.989 148.331 160.835C150.746 166.042 151.792 169.499 149.742 171.769C147.318 174.454 138.402 169.08 136.407 165.438C136.094 164.867 134.98 163.072 134.98 163.072C134.98 163.072 131.368 176.679 139.247 181.395C139.247 181.395 138.592 180.933 136.184 181.285C133.501 181.676 130.777 178.58 130.777 178.58C130.777 178.58 128.395 191.486 143.544 192.993C158.693 194.504 224.513 194.875 224.513 194.875L224.51 194.878Z" fill="#B3D4FF"/>
<path d="M213.932 194.963C214.8 194.947 215.669 194.973 216.534 195.054C220.152 195.383 225.321 194.073 230.485 190.037C234.479 186.919 234.746 177.048 234.746 177.048C234.746 177.048 230.569 179.847 225.605 180.55C216.15 181.893 218.906 174.03 219.991 170.143C220.843 167.096 219.997 161.014 214.439 154.119C214.439 154.119 214.607 161.96 207.45 161.824C204.196 161.763 202.915 165.404 202.062 166.676C201.833 167.018 201.152 167.941 198.618 165.104C195.906 162.063 200.074 158.399 198.473 152.67C197.785 150.21 193.079 146.081 193.079 146.081C193.079 146.081 198.67 151.543 191.164 156.249C187.956 158.261 187.262 157.415 186.51 161.092C186.39 161.676 185.244 162.454 184.327 160.62C183.533 159.032 184.185 157.111 185.338 155.904C185.338 155.904 180.225 157.056 180.567 161.753C180.654 162.961 181.345 164.659 181.044 164.32C179.999 163.135 179.757 162.738 176.664 161.66C171.18 159.749 175.621 154.022 175.902 152.389C175.902 152.389 164.323 159.326 169.401 169.484C169.401 169.484 165.889 169.946 162.703 165.488C160.01 161.721 159.174 158.764 159.174 158.764C159.174 158.764 155.072 163.871 156.908 169.365C158.306 173.545 157.761 174.849 155.604 173.829C149.235 170.821 150.465 177.164 144.254 176.528C141.104 176.205 138.231 172.219 138.063 171.925C138.063 171.925 137.95 175.163 139.483 177.345C142.443 181.554 143.835 185.26 140.865 185.396C136.039 185.615 133.505 182.587 133.505 182.587C133.505 182.587 132.078 191.916 143.541 194.079C153.935 196.042 204.58 195.154 213.932 194.97V194.963Z" fill="#4C9AFF"/>
<path d="M105.736 200.915C105.82 197.997 98.4174 195.415 89.2007 195.148C79.984 194.88 72.4438 197.03 72.3592 199.948C72.2746 202.867 79.6777 205.449 88.8944 205.716C98.1111 205.983 105.651 203.834 105.736 200.915Z" fill="#0065FF"/>
<path d="M105.877 195.645L72.5029 194.678L72.3451 200.123L105.719 201.09L105.877 195.645Z" fill="#0065FF"/>
<path d="M89.3366 190.483C93.9083 190.616 98.0101 191.323 100.942 192.345C102.411 192.858 103.558 193.44 104.323 194.048C105.097 194.663 105.401 195.237 105.386 195.737C105.372 196.236 105.035 196.792 104.227 197.361C103.428 197.924 102.249 198.439 100.753 198.865C97.7668 199.717 93.6309 200.185 89.0593 200.052C84.4876 199.92 80.3858 199.213 77.4539 198.19C75.985 197.678 74.8376 197.096 74.0725 196.488C73.2989 195.873 72.9949 195.298 73.0094 194.799C73.0239 194.299 73.3606 193.743 74.1686 193.174C74.9676 192.611 76.1468 192.096 77.6428 191.67C80.6291 190.819 84.7649 190.351 89.3366 190.483Z" fill="white" stroke="#253858"/>
<path d="M109.427 192.42C109.512 189.502 102.109 186.919 92.8921 186.652C83.6754 186.385 76.1352 188.535 76.0506 191.453C75.966 194.371 83.3691 196.954 92.5858 197.221C101.803 197.488 109.343 195.339 109.427 192.42Z" fill="#0065FF"/>
<path d="M109.568 187.147L76.1934 186.18L76.0356 191.625L109.41 192.592L109.568 187.147Z" fill="#0065FF"/>
<path d="M93.0251 181.988C97.5967 182.121 101.699 182.827 104.63 183.85C106.099 184.363 107.247 184.945 108.012 185.553C108.785 186.168 109.089 186.742 109.075 187.242C109.06 187.741 108.724 188.297 107.916 188.866C107.117 189.429 105.938 189.944 104.441 190.37C101.455 191.222 97.3194 191.69 92.7477 191.557C88.1761 191.425 84.0743 190.718 81.1424 189.695C79.6735 189.183 78.5261 188.601 77.761 187.992C76.9873 187.377 76.6834 186.803 76.6979 186.303C76.7123 185.804 77.049 185.248 77.8571 184.679C78.656 184.116 79.8353 183.601 81.3313 183.175C84.3175 182.324 88.4534 181.856 93.0251 181.988Z" fill="white" stroke="#253858"/>
<path d="M112.19 188.29C114.323 186.296 110.948 179.22 104.651 172.484C98.3546 165.748 91.5211 161.904 89.3883 163.898C87.2554 165.892 90.6308 172.968 96.9275 179.704C103.224 186.44 110.058 190.284 112.19 188.29Z" fill="#0065FF"/>
<path d="M116.033 184.689L93.2324 160.298L89.253 164.018L112.054 188.409L116.033 184.689Z" fill="#0065FF"/>
<path d="M108.058 169.3C111.182 172.641 113.566 176.053 114.903 178.855C115.573 180.259 115.967 181.484 116.073 182.456C116.181 183.438 115.987 184.058 115.621 184.4C115.256 184.741 114.625 184.893 113.652 184.719C112.689 184.548 111.494 184.072 110.138 183.31C107.432 181.787 104.188 179.178 101.065 175.837C97.9419 172.496 95.5574 169.085 94.2206 166.282C93.5508 164.878 93.1569 163.653 93.0505 162.682C92.9429 161.699 93.1371 161.079 93.5022 160.738C93.8672 160.396 94.4991 160.244 95.4721 160.418C96.4342 160.589 97.6298 161.065 98.9856 161.828C101.692 163.35 104.935 165.959 108.058 169.3Z" fill="white" stroke="#253858"/>
<path d="M108.522 116.307C106.97 117.845 101.775 115.119 96.9211 110.216C92.0669 105.314 89.3864 100.095 90.9404 98.5577C92.492 97.0205 97.6872 99.7466 102.541 104.649C107.398 109.551 110.076 114.77 108.522 116.307Z" fill="#0065FF"/>
<path d="M111.32 113.529L93.7373 95.7793L90.8416 98.6478L108.425 116.397L111.32 113.529Z" fill="#0065FF"/>
<path d="M104.93 102.279C107.332 104.703 109.181 107.193 110.234 109.246C110.762 110.275 111.076 111.169 111.174 111.873C111.274 112.589 111.139 113.008 110.915 113.23C110.69 113.453 110.27 113.583 109.555 113.477C108.851 113.373 107.961 113.05 106.937 112.512C104.894 111.44 102.422 109.568 100.02 107.143C97.6179 104.718 95.7692 102.229 94.716 100.176C94.188 99.1467 93.8735 98.2532 93.7756 97.5484C93.6762 96.8326 93.8108 96.4137 94.0353 96.1913C94.2598 95.9689 94.68 95.8383 95.3948 95.9444C96.0986 96.049 96.9891 96.3719 98.0132 96.9096C100.056 97.9821 102.528 99.8541 104.93 102.279Z" fill="white" stroke="#253858"/>
<path d="M78.569 151.211C85.4163 147.01 89.8886 141.846 88.5581 139.677C87.2276 137.509 80.5981 139.156 73.7508 143.357C66.9034 147.558 62.4311 152.722 63.7616 154.891C65.0921 157.059 71.7216 155.412 78.569 151.211Z" fill="#0065FF"/>
<path d="M86.1568 135.764L61.3604 150.978L63.8423 155.023L88.6388 139.81L86.1568 135.764Z" fill="#0065FF"/>
<path d="M85.7794 136.103C85.9917 136.449 86.0187 136.991 85.7042 137.783C85.3939 138.565 84.7847 139.497 83.8997 140.519C82.1339 142.557 79.3473 144.867 75.9549 146.948C72.5626 149.03 69.2409 150.467 66.6233 151.118C65.3116 151.444 64.2051 151.565 63.3673 151.487C62.5184 151.409 62.0476 151.139 61.8353 150.793C61.623 150.447 61.596 149.905 61.9104 149.113C62.2208 148.331 62.83 147.399 63.7149 146.377C65.4807 144.339 68.2673 142.029 71.6597 139.948C75.0521 137.866 78.3738 136.429 80.9913 135.778C82.303 135.452 83.4095 135.331 84.2474 135.409C85.0962 135.487 85.5671 135.757 85.7794 136.103Z" fill="white" stroke="#253858"/>
</svg>
